<svg width="400" height="160" viewBox="0 0 400 160" xmlns="http://www.w3.org/2000/svg">
  <title>FitMind Logo</title>
  <defs>
    <style>
      .logo-text { font-family: 'Arial Black', Arial, sans-serif; font-weight: 900; letter-spacing: -1px; }
    </style>
  </defs>

  <!-- Brain Icon centered at top -->
  <g transform="translate(158, 8)">
    <ellipse cx="18" cy="28" rx="18" ry="22" fill="none" stroke="#22d46e" stroke-width="1.8"/>
    <ellipse cx="52" cy="28" rx="18" ry="22" fill="none" stroke="#22d46e" stroke-width="1.8"/>
    <line x1="35" y1="12" x2="35" y2="44" stroke="#22d46e" stroke-width="1.2" stroke-dasharray="3,2"/>
    <path d="M8 20 Q14 16 10 24" stroke="#22d46e" stroke-width="1" fill="none"/>
    <path d="M6 30 Q12 26 8 34" stroke="#22d46e" stroke-width="1" fill="none"/>
    <path d="M10 38 Q16 34 12 42" stroke="#22d46e" stroke-width="1" fill="none"/>
    <path d="M62 20 Q56 16 60 24" stroke="#22d46e" stroke-width="1" fill="none"/>
    <path d="M64 30 Q58 26 62 34" stroke="#22d46e" stroke-width="1" fill="none"/>
    <path d="M60 38 Q54 34 58 42" stroke="#22d46e" stroke-width="1" fill="none"/>
    <polygon points="38,4 27,30 36,30 31,58 47,26 38,26" fill="#22d46e"/>
  </g>

  <!-- Wordmark -->
  <text x="200" y="128" text-anchor="middle" class="logo-text" font-size="48" fill="#ffffff">Fit<tspan fill="#22d46e">Mind</tspan></text>
</svg>
